# xmcd
#
# Track frame offsets:
#	150
#	15417
#	33015
#	50685
#	63842
#	78462
#	93946
#	110037
#
# Disc length: 1747 seconds
#
# Revision: 0
# Processed by: cddbd v1.5.1PL2 Copyright (c) Steve Scherf et al.
# Submitted via: dBpowerAMP V4.0
#
DISCID=5806d108
DTITLE=C.W. Stoneking - King Hokum (Bootleg edition)
DYEAR=2005
DGENRE=Blues
TTITLE0=Way Out In the World
TTITLE1=Dodo blues
TTITLE2=She's A Bread Baker
TTITLE3=On A Christmas Day
TTITLE4=goin The Country
TTITLE5=Handyman blues
TTITLE6=Charley Bostocks Blues
TTITLE7=Bad Luck Everywhere You Go
EXTD=
EXTT0=
EXTT1=
EXTT2=
EXTT3=
EXTT4=
EXTT5=
EXTT6=
EXTT7=
PLAYORDER=
